<svg width="320" height="320" viewBox="0 0 320 320" xmlns="http://www.w3.org/2000/svg" role="img" aria-labelledby="title desc">
  <title id="title">Herold Avatar</title>
  <desc id="desc">Stylized gear and circuit lines representing an autonomous agent.</desc>
  <defs>
    <linearGradient id="bg" x1="0%" y1="0%" x2="100%" y2="100%">
      <stop offset="0%" stop-color="#121826" />
      <stop offset="100%" stop-color="#1f2937" />
    </linearGradient>
    <linearGradient id="accent" x1="0%" y1="0%" x2="100%" y2="0%">
      <stop offset="0%" stop-color="#60a5fa" />
      <stop offset="100%" stop-color="#38bdf8" />
    </linearGradient>
  </defs>
  <rect width="320" height="320" rx="48" fill="url(#bg)" />
  <g fill="none" stroke="url(#accent)" stroke-width="10" stroke-linecap="round" stroke-linejoin="round">
    <path d="M90 120h40" opacity="0.5" />
    <path d="M190 200h40" opacity="0.5" />
    <circle cx="160" cy="160" r="72" />
    <circle cx="160" cy="160" r="32" />
    <path d="M160 88v-24" />
    <path d="M160 256v-24" />
    <path d="M232 160h24" />
    <path d="M64 160h24" />
    <path d="M214 106l17-17" />
    <path d="M89 231l17-17" />
    <path d="M214 214l17 17" />
    <path d="M89 89l17 17" />
    <path d="M128 256l-8 32" opacity="0.6" />
    <path d="M192 256l8 32" opacity="0.6" />
  </g>
  <text x="160" y="300" text-anchor="middle" font-family="'Inter', 'SF Pro Display', sans-serif" font-size="28" fill="#f8fafc" letter-spacing="1">
    HEROLD ⚙️
  </text>
</svg>
